<svg width="1024" height="1024" viewBox="0 0 1024 1024" fill="none" xmlns="http://www.w3.org/2000/svg">
  <defs>
    <filter id="shadow" x="126" y="168" width="696" height="705" filterUnits="userSpaceOnUse" color-interpolation-filters="sRGB">
      <feFlood flood-opacity="0" result="BackgroundImageFix"/>
      <feColorMatrix in="SourceAlpha" type="matrix" values="0 0 0 0 0 0 0 0 0 0 0 0 0 0 0 0 0 0 127 0" result="hardAlpha"/>
      <feOffset dy="10"/>
      <feGaussianBlur stdDeviation="10"/>
      <feColorMatrix type="matrix" values="0 0 0 0 0.0862745 0 0 0 0 0.188235 0 0 0 0 0.298039 0 0 0 0.2 0"/>
      <feBlend mode="normal" in2="BackgroundImageFix" result="effect1_dropShadow_1_1"/>
      <feBlend mode="normal" in="SourceGraphic" in2="effect1_dropShadow_1_1" result="shape"/>
    </filter>
  </defs>

  <g filter="url(#shadow)">
    <rect x="326" y="278" width="384" height="504" rx="46" transform="rotate(-5.5 326 278)" fill="#16324C" fill-opacity="0.2"/>
    <g transform="rotate(4 548 538)">
      <rect x="329" y="258" width="438" height="560" rx="46" fill="#16324C"/>
      <rect x="355" y="284" width="386" height="508" rx="28" stroke="white" stroke-opacity="0.12" stroke-width="2"/>

      <path d="M395 319H483" stroke="white" stroke-opacity="0.95" stroke-width="11" stroke-linecap="round"/>
      <path d="M614 335H702" stroke="white" stroke-opacity="0.95" stroke-width="11" stroke-linecap="round"/>
      <path d="M395 691H483" stroke="white" stroke-opacity="0.95" stroke-width="11" stroke-linecap="round"/>
      <path d="M614 707H702" stroke="white" stroke-opacity="0.95" stroke-width="11" stroke-linecap="round"/>
      <path d="M389.5 324V404" stroke="white" stroke-opacity="0.95" stroke-width="11" stroke-linecap="round"/>
      <path d="M707.5 340V420" stroke="white" stroke-opacity="0.95" stroke-width="11" stroke-linecap="round"/>
      <path d="M389.5 612V692" stroke="white" stroke-opacity="0.95" stroke-width="11" stroke-linecap="round"/>
      <path d="M707.5 628V708" stroke="white" stroke-opacity="0.95" stroke-width="11" stroke-linecap="round"/>

      <rect x="455" y="403" width="115" height="18" rx="9" fill="white" fill-opacity="0.95"/>

      <rect x="437" y="452" width="232" height="14" rx="7" fill="white" fill-opacity="0.46"/>
      <rect x="437" y="484" width="192" height="14" rx="7" fill="white" fill-opacity="0.46"/>
      <rect x="437" y="516" width="240" height="14" rx="7" fill="white" fill-opacity="0.46"/>
      <rect x="437" y="548" width="146" height="14" rx="7" fill="white" fill-opacity="0.46"/>

      <rect x="442" y="646" width="24" height="58" rx="12" fill="white"/>
      <rect x="482" y="616" width="24" height="88" rx="12" fill="white"/>
      <rect x="522" y="634" width="24" height="70" rx="12" fill="white"/>
      <rect x="562" y="624" width="24" height="80" rx="12" fill="white"/>
    </g>
  </g>

  <circle cx="705" cy="705" r="88" fill="#16324C"/>
  <circle cx="705" cy="705" r="58" stroke="white" stroke-width="14"/>
  <circle cx="705" cy="705" r="30" fill="white"/>
</svg>
